# xmcd
#
# Track frame offsets: 
#        187
#        19095
#        40722
#        55697
#        74045
#        93225
#        113752
#        126840
#        142525
#        170602
#        188147
#        218265
#        239422
#        263125
#        281302
#        298200
#
# Disc length: 4221 seconds
#
# Revision: 7
# Processed by: cddbd v1.5.2PL0 Copyright (c) Steve Scherf et al.
# Submitted via: ExactAudioCopyFreeDBPlugin 1.0
#
DISCID=e0107b10
DTITLE=Various Artist - Flamenco Guitar Best Selection
DYEAR=1979
DGENRE=Other
TTITLE0=Carlos Montoya - La Virgen De La Macarena
TTITLE1=Carlos Montoya - Levante
TTITLE2=Carlos Montoya - Nana Del Gitanito
TTITLE3=Carlos Montoya - Granaina
TTITLE4=Carlos Montoya - Duende Flamenco
TTITLE5=Carlos Montoya - Cante De Sevilla (Petenera)
TTITLE6=Carlos Montoya - Solea Por Medio
TTITLE7=Sabicas - Duelo Flamenco
TTITLE8=Sabicas - Estampa Gaditana
TTITLE9=Sabicas - Sentimiento
TTITLE10=Sabicas - Jardin Malagueño
TTITLE11=Manolo Sanlúcar - Ruiseñor Y Mirlo
TTITLE12=Manolo Sanlúcar - Elegia A Ramon Sije
TTITLE13=Manolo Sanlúcar - Corrida Real
TTITLE14=Manolo Sanlúcar - Amor En Prima Vera
TTITLE15=Manolo Sanlúcar - Callejon Del Carmen
EXTD=
EXTT0=
EXTT1=
EXTT2=
EXTT3=
EXTT4=
EXTT5=
EXTT6=
EXTT7=
EXTT8=
EXTT9=
EXTT10=
EXTT11=
EXTT12=
EXTT13=
EXTT14=
EXTT15=
PLAYORDER=
